<svg width="20" height="20" viewBox="0 0 20 20" fill="none" xmlns="http://www.w3.org/2000/svg">
<path d="M16.9531 14.2969H15.5801C15.4863 14.2969 15.3984 14.3379 15.3399 14.4102C15.2031 14.5762 15.0566 14.7363 14.9024 14.8887C14.2713 15.5204 13.5238 16.0238 12.7012 16.3711C11.8489 16.7311 10.933 16.9157 10.0078 16.9141C9.07227 16.9141 8.16602 16.7305 7.31446 16.3711C6.49186 16.0238 5.74436 15.5204 5.11329 14.8887C4.48109 14.2591 3.97699 13.5129 3.62891 12.6914C3.26759 11.8398 3.08594 10.9355 3.08594 10C3.08594 9.06445 3.26954 8.16016 3.62891 7.30859C3.97657 6.48633 4.47657 5.74609 5.11329 5.11133C5.75001 4.47656 6.49024 3.97656 7.31446 3.62891C8.16602 3.26953 9.07227 3.08594 10.0078 3.08594C10.9434 3.08594 11.8496 3.26758 12.7012 3.62891C13.5254 3.97656 14.2656 4.47656 14.9024 5.11133C15.0566 5.26563 15.2012 5.42578 15.3399 5.58984C15.3984 5.66211 15.4883 5.70313 15.5801 5.70313H16.9531C17.0762 5.70313 17.1524 5.56641 17.084 5.46289C15.5859 3.13477 12.9649 1.59375 9.98634 1.60156C5.30665 1.61328 1.55469 5.41211 1.60157 10.0859C1.64844 14.6856 5.39454 18.3984 10.0078 18.3984C12.9785 18.3984 15.5879 16.8594 17.084 14.5371C17.1504 14.4336 17.0762 14.2969 16.9531 14.2969ZM18.6895 9.87696L15.918 7.68945C15.8145 7.60742 15.6641 7.68164 15.6641 7.8125V9.29688H9.53126C9.44532 9.29688 9.37501 9.36719 9.37501 9.45313V10.5469C9.37501 10.6328 9.44532 10.7031 9.53126 10.7031H15.6641V12.1875C15.6641 12.3184 15.8164 12.3926 15.918 12.3105L18.6895 10.123C18.7081 10.1084 18.7232 10.0898 18.7336 10.0684C18.744 10.0471 18.7494 10.0237 18.7494 10C18.7494 9.97629 18.744 9.95288 18.7336 9.93156C18.7232 9.91025 18.7081 9.89157 18.6895 9.87696V9.87696Z" fill="#404040"/>
</svg>
