<svg width="20" height="20" viewBox="0 0 20 20" fill="none" xmlns="http://www.w3.org/2000/svg">
<g clip-path="url(#clip0)">
<path d="M13.75 3.75C13.75 1.67891 12.0711 0 10 0C7.92891 0 6.25 1.67891 6.25 3.75C6.25 5.82109 7.92891 7.5 10 7.5C12.0711 7.5 13.75 5.82109 13.75 3.75ZM9.12461 9.41797C6.80703 7.99922 3.05312 7.60938 1.16406 7.50195C0.529297 7.46602 0 7.94961 0 8.56016V17.2633C0 17.823 0.452734 18.2898 1.03477 18.3199C2.74023 18.4094 6.19062 18.7371 8.57539 19.9383C8.94141 20.1227 9.37539 19.8715 9.37539 19.4746V9.86562C9.375 9.6832 9.28477 9.51602 9.12461 9.41797ZM18.8359 7.50195C16.9473 7.60898 13.193 7.99922 10.8758 9.41797C10.7156 9.51602 10.6254 9.68984 10.6254 9.87227V19.4734C10.6254 19.8715 11.0605 20.123 11.4277 19.9383C13.8121 18.7383 17.2605 18.4105 18.9656 18.3211C19.5477 18.2906 20.0004 17.8238 20.0004 17.2641V8.56016C20 7.94961 19.4707 7.46602 18.8359 7.50195V7.50195Z" fill="#404040"/>
</g>
<defs>
<clipPath id="clip0">
<rect width="20" height="20" fill="white"/>
</clipPath>
</defs>
</svg>
