<svg width="26" height="26" viewBox="0 0 26 26" fill="none" xmlns="http://www.w3.org/2000/svg">
<path d="M22.6814 7.44707L18.5529 3.31855C18.2482 3.01387 17.8344 2.84375 17.4027 2.84375H3.65625C3.20684 2.84375 2.84375 3.20684 2.84375 3.65625V22.3438C2.84375 22.7932 3.20684 23.1562 3.65625 23.1562H22.3438C22.7932 23.1562 23.1562 22.7932 23.1562 22.3438V8.59473C23.1562 8.16309 22.9861 7.75176 22.6814 7.44707ZM9.75 4.46875H16.25V7.3125H9.75V4.46875ZM13 18.5352C10.9814 18.5352 9.34375 16.8975 9.34375 14.8789C9.34375 12.8604 10.9814 11.2227 13 11.2227C15.0186 11.2227 16.6562 12.8604 16.6562 14.8789C16.6562 16.8975 15.0186 18.5352 13 18.5352ZM13 12.8477C11.8777 12.8477 10.9688 13.7566 10.9688 14.8789C10.9688 16.0012 11.8777 16.9102 13 16.9102C14.1223 16.9102 15.0312 16.0012 15.0312 14.8789C15.0312 13.7566 14.1223 12.8477 13 12.8477Z" fill="#404040"/>
</svg>
