<svg width="16" height="16" viewBox="0 0 16 16" fill="none" xmlns="http://www.w3.org/2000/svg">
<path d="M15.8431 0.470588H4.39216C4.30588 0.470588 4.23529 0.555294 4.23529 0.658824V1.97647C4.23529 2.08 4.30588 2.16471 4.39216 2.16471H15.8431C15.9294 2.16471 16 2.08 16 1.97647V0.658824C16 0.555294 15.9294 0.470588 15.8431 0.470588ZM15.8431 7.15294H4.39216C4.30588 7.15294 4.23529 7.23765 4.23529 7.34118V8.65882C4.23529 8.76235 4.30588 8.84706 4.39216 8.84706H15.8431C15.9294 8.84706 16 8.76235 16 8.65882V7.34118C16 7.23765 15.9294 7.15294 15.8431 7.15294ZM15.8431 13.8353H4.39216C4.30588 13.8353 4.23529 13.92 4.23529 14.0235V15.3412C4.23529 15.4447 4.30588 15.5294 4.39216 15.5294H15.8431C15.9294 15.5294 16 15.4447 16 15.3412V14.0235C16 13.92 15.9294 13.8353 15.8431 13.8353ZM0 1.31765C-2.1487e-09 1.49068 0.0284017 1.66202 0.0835833 1.82189C0.138765 1.98175 0.219646 2.12701 0.321608 2.24936C0.423571 2.37172 0.544618 2.46878 0.677838 2.53499C0.811058 2.60121 0.953843 2.63529 1.09804 2.63529C1.24224 2.63529 1.38502 2.60121 1.51824 2.53499C1.65146 2.46878 1.77251 2.37172 1.87447 2.24936C1.97643 2.12701 2.05731 1.98175 2.1125 1.82189C2.16768 1.66202 2.19608 1.49068 2.19608 1.31765C2.19608 1.14461 2.16768 0.97327 2.1125 0.813405C2.05731 0.653541 1.97643 0.508285 1.87447 0.38593C1.77251 0.263575 1.65146 0.166518 1.51824 0.1003C1.38502 0.0340818 1.24224 0 1.09804 0C0.953843 0 0.811058 0.0340818 0.677838 0.1003C0.544618 0.166518 0.423571 0.263575 0.321608 0.38593C0.219646 0.508285 0.138765 0.653541 0.0835833 0.813405C0.0284017 0.97327 -2.1487e-09 1.14461 0 1.31765V1.31765ZM0 8C-2.1487e-09 8.17304 0.0284017 8.34438 0.0835833 8.50424C0.138765 8.66411 0.219646 8.80936 0.321608 8.93172C0.423571 9.05407 0.544618 9.15113 0.677838 9.21735C0.811058 9.28357 0.953843 9.31765 1.09804 9.31765C1.24224 9.31765 1.38502 9.28357 1.51824 9.21735C1.65146 9.15113 1.77251 9.05407 1.87447 8.93172C1.97643 8.80936 2.05731 8.66411 2.1125 8.50424C2.16768 8.34438 2.19608 8.17304 2.19608 8C2.19608 7.82696 2.16768 7.65562 2.1125 7.49576C2.05731 7.33589 1.97643 7.19064 1.87447 7.06828C1.77251 6.94593 1.65146 6.84887 1.51824 6.78265C1.38502 6.71644 1.24224 6.68235 1.09804 6.68235C0.953843 6.68235 0.811058 6.71644 0.677838 6.78265C0.544618 6.84887 0.423571 6.94593 0.321608 7.06828C0.219646 7.19064 0.138765 7.33589 0.0835833 7.49576C0.0284017 7.65562 -2.1487e-09 7.82696 0 8V8ZM0 14.6824C-2.1487e-09 14.8554 0.0284017 15.0267 0.0835833 15.1866C0.138765 15.3465 0.219646 15.4917 0.321608 15.6141C0.423571 15.7364 0.544618 15.8335 0.677838 15.8997C0.811058 15.9659 0.953843 16 1.09804 16C1.24224 16 1.38502 15.9659 1.51824 15.8997C1.65146 15.8335 1.77251 15.7364 1.87447 15.6141C1.97643 15.4917 2.05731 15.3465 2.1125 15.1866C2.16768 15.0267 2.19608 14.8554 2.19608 14.6824C2.19608 14.5093 2.16768 14.338 2.1125 14.1781C2.05731 14.0182 1.97643 13.873 1.87447 13.7506C1.77251 13.6283 1.65146 13.5312 1.51824 13.465C1.38502 13.3988 1.24224 13.3647 1.09804 13.3647C0.953843 13.3647 0.811058 13.3988 0.677838 13.465C0.544618 13.5312 0.423571 13.6283 0.321608 13.7506C0.219646 13.873 0.138765 14.0182 0.0835833 14.1781C0.0284017 14.338 -2.1487e-09 14.5093 0 14.6824V14.6824Z" fill="#404040"/>
</svg>
